<mxfile>
    <diagram id="RLBklKykHZxigc7XuGrD" name="Page-1">
        <mxGraphModel dx="1145" dy="658" grid="1" gridSize="10" guides="1" tooltips="1" connect="1" arrows="1" fold="1" page="1" pageScale="1" pageWidth="827" pageHeight="1169" math="0" shadow="0">
            <root>
                <mxCell id="0"/>
                <mxCell id="1" parent="0"/>
                <mxCell id="71" value="" style="rounded=0;whiteSpace=wrap;html=1;fillColor=none;dashed=1;" vertex="1" parent="1">
                    <mxGeometry x="258" y="340" width="396" height="90" as="geometry"/>
                </mxCell>
                <mxCell id="22" style="edgeStyle=orthogonalEdgeStyle;rounded=0;orthogonalLoop=1;jettySize=auto;html=1;exitX=1;exitY=0.5;exitDx=0;exitDy=0;entryX=0;entryY=0.5;entryDx=0;entryDy=0;" edge="1" parent="1" source="2" target="4">
                    <mxGeometry relative="1" as="geometry"/>
                </mxCell>
                <mxCell id="2" value="Process Step1" style="ellipse;whiteSpace=wrap;html=1;aspect=fixed;" vertex="1" parent="1">
                    <mxGeometry x="238" y="50" width="80" height="80" as="geometry"/>
                </mxCell>
                <mxCell id="21" style="edgeStyle=orthogonalEdgeStyle;rounded=0;orthogonalLoop=1;jettySize=auto;html=1;entryX=0;entryY=0.5;entryDx=0;entryDy=0;" edge="1" parent="1" source="3" target="2">
                    <mxGeometry relative="1" as="geometry"/>
                </mxCell>
                <mxCell id="3" value="New Process" style="rounded=1;whiteSpace=wrap;html=1;" vertex="1" parent="1">
                    <mxGeometry x="68" y="60" width="120" height="60" as="geometry"/>
                </mxCell>
                <mxCell id="23" style="edgeStyle=orthogonalEdgeStyle;rounded=0;orthogonalLoop=1;jettySize=auto;html=1;exitX=1;exitY=0.5;exitDx=0;exitDy=0;entryX=0;entryY=0.5;entryDx=0;entryDy=0;" edge="1" parent="1" source="4" target="14">
                    <mxGeometry relative="1" as="geometry"/>
                </mxCell>
                <mxCell id="4" value="Process Step2" style="ellipse;whiteSpace=wrap;html=1;aspect=fixed;" vertex="1" parent="1">
                    <mxGeometry x="368" y="50" width="80" height="80" as="geometry"/>
                </mxCell>
                <mxCell id="25" style="edgeStyle=orthogonalEdgeStyle;rounded=0;orthogonalLoop=1;jettySize=auto;html=1;exitX=1;exitY=0.5;exitDx=0;exitDy=0;entryX=-0.007;entryY=0.5;entryDx=0;entryDy=0;entryPerimeter=0;" edge="1" parent="1" source="13" target="20">
                    <mxGeometry relative="1" as="geometry">
                        <Array as="points">
                            <mxPoint x="728" y="90"/>
                            <mxPoint x="728" y="160"/>
                            <mxPoint x="38" y="160"/>
                            <mxPoint x="38" y="230"/>
                        </Array>
                    </mxGeometry>
                </mxCell>
                <mxCell id="13" value="Process Step4" style="ellipse;whiteSpace=wrap;html=1;aspect=fixed;" vertex="1" parent="1">
                    <mxGeometry x="628" y="50" width="80" height="80" as="geometry"/>
                </mxCell>
                <mxCell id="24" style="edgeStyle=orthogonalEdgeStyle;rounded=0;orthogonalLoop=1;jettySize=auto;html=1;exitX=1;exitY=0.5;exitDx=0;exitDy=0;" edge="1" parent="1" source="14" target="13">
                    <mxGeometry relative="1" as="geometry"/>
                </mxCell>
                <mxCell id="14" value="Process Step3" style="ellipse;whiteSpace=wrap;html=1;aspect=fixed;" vertex="1" parent="1">
                    <mxGeometry x="498" y="50" width="80" height="80" as="geometry"/>
                </mxCell>
                <mxCell id="27" style="edgeStyle=orthogonalEdgeStyle;rounded=0;orthogonalLoop=1;jettySize=auto;html=1;entryX=0;entryY=0.5;entryDx=0;entryDy=0;" edge="1" parent="1" source="16" target="17">
                    <mxGeometry relative="1" as="geometry"/>
                </mxCell>
                <mxCell id="16" value="Process Step17" style="ellipse;whiteSpace=wrap;html=1;aspect=fixed;" vertex="1" parent="1">
                    <mxGeometry x="238" y="190" width="80" height="80" as="geometry"/>
                </mxCell>
                <mxCell id="28" style="edgeStyle=orthogonalEdgeStyle;rounded=0;orthogonalLoop=1;jettySize=auto;html=1;entryX=0;entryY=0.5;entryDx=0;entryDy=0;" edge="1" parent="1" source="17" target="19">
                    <mxGeometry relative="1" as="geometry"/>
                </mxCell>
                <mxCell id="17" value="Process Step18" style="ellipse;whiteSpace=wrap;html=1;aspect=fixed;" vertex="1" parent="1">
                    <mxGeometry x="368" y="190" width="80" height="80" as="geometry"/>
                </mxCell>
                <mxCell id="98" value="" style="edgeStyle=orthogonalEdgeStyle;rounded=0;orthogonalLoop=1;jettySize=auto;html=1;" edge="1" parent="1" source="18" target="96">
                    <mxGeometry relative="1" as="geometry"/>
                </mxCell>
                <mxCell id="18" value="Process Step20" style="ellipse;whiteSpace=wrap;html=1;aspect=fixed;" vertex="1" parent="1">
                    <mxGeometry x="628" y="190" width="80" height="80" as="geometry"/>
                </mxCell>
                <mxCell id="29" style="edgeStyle=orthogonalEdgeStyle;rounded=0;orthogonalLoop=1;jettySize=auto;html=1;entryX=0;entryY=0.5;entryDx=0;entryDy=0;" edge="1" parent="1" source="19" target="18">
                    <mxGeometry relative="1" as="geometry"/>
                </mxCell>
                <mxCell id="19" value="Process Step19" style="ellipse;whiteSpace=wrap;html=1;aspect=fixed;" vertex="1" parent="1">
                    <mxGeometry x="498" y="190" width="80" height="80" as="geometry"/>
                </mxCell>
                <mxCell id="26" style="edgeStyle=orthogonalEdgeStyle;rounded=0;orthogonalLoop=1;jettySize=auto;html=1;entryX=0;entryY=0.5;entryDx=0;entryDy=0;" edge="1" parent="1" source="20" target="16">
                    <mxGeometry relative="1" as="geometry"/>
                </mxCell>
                <mxCell id="20" value="&lt;b&gt;&lt;font style=&quot;font-size: 20px&quot;&gt;・・・・・・&lt;/font&gt;&lt;/b&gt;" style="text;html=1;align=center;verticalAlign=middle;resizable=0;points=[];autosize=1;" vertex="1" parent="1">
                    <mxGeometry x="58" y="220" width="140" height="20" as="geometry"/>
                </mxCell>
                <mxCell id="48" value="" style="group" vertex="1" connectable="0" parent="1">
                    <mxGeometry x="38" y="330" width="152" height="110" as="geometry"/>
                </mxCell>
                <mxCell id="30" value="" style="shape=actor;whiteSpace=wrap;html=1;" vertex="1" parent="48">
                    <mxGeometry x="128" width="24" height="30" as="geometry"/>
                </mxCell>
                <mxCell id="31" value="" style="shape=actor;whiteSpace=wrap;html=1;" vertex="1" parent="48">
                    <mxGeometry x="128" y="10" width="24" height="30" as="geometry"/>
                </mxCell>
                <mxCell id="32" value="" style="shape=actor;whiteSpace=wrap;html=1;" vertex="1" parent="48">
                    <mxGeometry x="128" y="20" width="24" height="30" as="geometry"/>
                </mxCell>
                <mxCell id="33" value="" style="shape=actor;whiteSpace=wrap;html=1;" vertex="1" parent="48">
                    <mxGeometry x="128" y="30" width="24" height="30" as="geometry"/>
                </mxCell>
                <mxCell id="34" value="" style="shape=actor;whiteSpace=wrap;html=1;" vertex="1" parent="48">
                    <mxGeometry x="128" y="40" width="24" height="30" as="geometry"/>
                </mxCell>
                <mxCell id="35" value="" style="shape=actor;whiteSpace=wrap;html=1;" vertex="1" parent="48">
                    <mxGeometry x="128" y="50" width="24" height="30" as="geometry"/>
                </mxCell>
                <mxCell id="36" value="" style="shape=actor;whiteSpace=wrap;html=1;" vertex="1" parent="48">
                    <mxGeometry x="128" y="60" width="24" height="30" as="geometry"/>
                </mxCell>
                <mxCell id="37" value="" style="shape=actor;whiteSpace=wrap;html=1;" vertex="1" parent="48">
                    <mxGeometry x="128" y="70" width="24" height="30" as="geometry"/>
                </mxCell>
                <mxCell id="38" value="" style="shape=actor;whiteSpace=wrap;html=1;" vertex="1" parent="48">
                    <mxGeometry x="128" y="80" width="24" height="30" as="geometry"/>
                </mxCell>
                <mxCell id="46" value="" style="shape=curlyBracket;whiteSpace=wrap;html=1;rounded=1;" vertex="1" parent="48">
                    <mxGeometry x="90" y="10" width="20" height="95" as="geometry"/>
                </mxCell>
                <mxCell id="47" value="20 fake actors" style="text;html=1;align=center;verticalAlign=middle;resizable=0;points=[];autosize=1;" vertex="1" parent="48">
                    <mxGeometry x="-5" y="45" width="90" height="20" as="geometry"/>
                </mxCell>
                <mxCell id="57" value="&lt;p style=&quot;line-height: 10%&quot;&gt;&lt;br&gt;&lt;/p&gt;" style="shape=singleArrow;whiteSpace=wrap;html=1;" vertex="1" parent="1">
                    <mxGeometry x="205.82999999999998" y="380" width="44.33" height="20" as="geometry"/>
                </mxCell>
                <mxCell id="58" value="" style="shape=actor;whiteSpace=wrap;html=1;" vertex="1" parent="1">
                    <mxGeometry x="266" y="355" width="24" height="30" as="geometry"/>
                </mxCell>
                <mxCell id="59" value="" style="shape=actor;whiteSpace=wrap;html=1;" vertex="1" parent="1">
                    <mxGeometry x="266" y="365" width="24" height="30" as="geometry"/>
                </mxCell>
                <mxCell id="60" value="" style="shape=actor;whiteSpace=wrap;html=1;" vertex="1" parent="1">
                    <mxGeometry x="266" y="375" width="24" height="30" as="geometry"/>
                </mxCell>
                <mxCell id="61" value="" style="shape=actor;whiteSpace=wrap;html=1;" vertex="1" parent="1">
                    <mxGeometry x="266" y="385" width="24" height="30" as="geometry"/>
                </mxCell>
                <mxCell id="62" value="some real actors" style="text;html=1;align=center;verticalAlign=middle;resizable=0;points=[];autosize=1;" vertex="1" parent="1">
                    <mxGeometry x="308" y="375" width="100" height="20" as="geometry"/>
                </mxCell>
                <mxCell id="63" value="reassign" style="text;html=1;align=center;verticalAlign=middle;resizable=0;points=[];autosize=1;" vertex="1" parent="1">
                    <mxGeometry x="198" y="360" width="60" height="20" as="geometry"/>
                </mxCell>
                <mxCell id="64" value="" style="shape=actor;whiteSpace=wrap;html=1;fillColor=#E6FFCC;" vertex="1" parent="1">
                    <mxGeometry x="216" y="430" width="24" height="30" as="geometry"/>
                </mxCell>
                <mxCell id="65" value="auto-approving remaining fake actors" style="text;html=1;align=center;verticalAlign=middle;resizable=0;points=[];autosize=1;" vertex="1" parent="1">
                    <mxGeometry x="133" y="465" width="210" height="20" as="geometry"/>
                </mxCell>
                <mxCell id="67" value="" style="shape=singleArrow;direction=south;whiteSpace=wrap;html=1;fillColor=#ffffff;" vertex="1" parent="1">
                    <mxGeometry x="218" y="395" width="20" height="30" as="geometry"/>
                </mxCell>
                <mxCell id="69" value="" style="endArrow=none;dashed=1;html=1;" edge="1" parent="1">
                    <mxGeometry width="50" height="50" relative="1" as="geometry">
                        <mxPoint x="188" y="320" as="sourcePoint"/>
                        <mxPoint x="238" y="270" as="targetPoint"/>
                    </mxGeometry>
                </mxCell>
                <mxCell id="70" value="what happens inside a process step" style="edgeLabel;html=1;align=center;verticalAlign=middle;resizable=0;points=[];" vertex="1" connectable="0" parent="69">
                    <mxGeometry x="0.36" y="1" relative="1" as="geometry">
                        <mxPoint x="-1.47" y="14.88" as="offset"/>
                    </mxGeometry>
                </mxCell>
                <mxCell id="72" value="" style="shape=actor;whiteSpace=wrap;html=1;" vertex="1" parent="1">
                    <mxGeometry x="438" y="370" width="24" height="30" as="geometry"/>
                </mxCell>
                <mxCell id="74" value="" style="shape=actor;whiteSpace=wrap;html=1;" vertex="1" parent="1">
                    <mxGeometry x="498" y="370" width="24" height="30" as="geometry"/>
                </mxCell>
                <mxCell id="75" value="" style="shape=actor;whiteSpace=wrap;html=1;" vertex="1" parent="1">
                    <mxGeometry x="554" y="370" width="24" height="30" as="geometry"/>
                </mxCell>
                <mxCell id="76" value="" style="shape=actor;whiteSpace=wrap;html=1;" vertex="1" parent="1">
                    <mxGeometry x="608" y="370" width="24" height="30" as="geometry"/>
                </mxCell>
                <mxCell id="94" style="edgeStyle=orthogonalEdgeStyle;rounded=0;orthogonalLoop=1;jettySize=auto;html=1;exitX=0.1;exitY=0.5;exitDx=0;exitDy=0;exitPerimeter=0;" edge="1" parent="1" source="92">
                    <mxGeometry relative="1" as="geometry">
                        <mxPoint x="338" y="230" as="targetPoint"/>
                        <mxPoint x="531" y="330" as="sourcePoint"/>
                        <Array as="points">
                            <mxPoint x="530" y="300"/>
                            <mxPoint x="338" y="300"/>
                        </Array>
                    </mxGeometry>
                </mxCell>
                <mxCell id="95" value="all approve / single approve&lt;br&gt;&amp;nbsp;depending on the step setting" style="edgeLabel;html=1;align=center;verticalAlign=middle;resizable=0;points=[];" vertex="1" connectable="0" parent="94">
                    <mxGeometry x="0.0899" y="2" relative="1" as="geometry">
                        <mxPoint x="17" y="-2.0300000000000002" as="offset"/>
                    </mxGeometry>
                </mxCell>
                <mxCell id="92" value="" style="shape=curlyBracket;whiteSpace=wrap;html=1;rounded=1;rotation=90;" vertex="1" parent="1">
                    <mxGeometry x="518.63" y="265.63" width="23.75" height="170" as="geometry"/>
                </mxCell>
                <mxCell id="96" value="Process&lt;br&gt;Approved" style="text;html=1;align=center;verticalAlign=middle;resizable=0;points=[];autosize=1;strokeColor=#82b366;fillColor=#d5e8d4;" vertex="1" parent="1">
                    <mxGeometry x="744" y="215" width="70" height="30" as="geometry"/>
                </mxCell>
                <mxCell id="100" value="" style="shape=singleArrow;direction=south;whiteSpace=wrap;html=1;fillColor=#ffffff;" vertex="1" parent="1">
                    <mxGeometry x="440" y="410" width="20" height="30" as="geometry"/>
                </mxCell>
                <mxCell id="105" value="" style="edgeStyle=orthogonalEdgeStyle;rounded=0;orthogonalLoop=1;jettySize=auto;html=1;" edge="1" parent="1" source="102" target="103">
                    <mxGeometry relative="1" as="geometry"/>
                </mxCell>
                <mxCell id="102" value="Reject / Remove action" style="text;html=1;align=center;verticalAlign=middle;resizable=0;points=[];autosize=1;" vertex="1" parent="1">
                    <mxGeometry x="380" y="440" width="140" height="20" as="geometry"/>
                </mxCell>
                <mxCell id="109" value="" style="edgeStyle=orthogonalEdgeStyle;rounded=0;orthogonalLoop=1;jettySize=auto;html=1;dashed=1;" edge="1" parent="1" source="103" target="108">
                    <mxGeometry relative="1" as="geometry"/>
                </mxCell>
                <mxCell id="110" value="Resubmit a new process" style="edgeLabel;html=1;align=center;verticalAlign=middle;resizable=0;points=[];" vertex="1" connectable="0" parent="109">
                    <mxGeometry x="0.24" y="-1" relative="1" as="geometry">
                        <mxPoint x="1" y="-6" as="offset"/>
                    </mxGeometry>
                </mxCell>
                <mxCell id="103" value="Process &lt;br&gt;Rejected&lt;br&gt;&amp;nbsp;/ Removed" style="text;html=1;align=center;verticalAlign=middle;resizable=0;points=[];autosize=1;fillColor=#f8cecc;strokeColor=#b85450;" vertex="1" parent="1">
                    <mxGeometry x="410" y="485" width="80" height="50" as="geometry"/>
                </mxCell>
                <mxCell id="108" value="New Process" style="rounded=1;whiteSpace=wrap;html=1;dashed=1;dashPattern=1 2;" vertex="1" parent="1">
                    <mxGeometry x="390" y="585" width="120" height="60" as="geometry"/>
                </mxCell>
            </root>
        </mxGraphModel>
    </diagram>
</mxfile>